<?xml version="1.0" standalone="no"?>
<!DOCTYPE svg PUBLIC "-//W3C//DTD SVG 20010904//EN"
 "http://www.w3.org/TR/2001/REC-SVG-20010904/DTD/svg10.dtd">
<svg version="1.0" xmlns="http://www.w3.org/2000/svg"
 width="140.000000pt" height="140.000000pt" viewBox="0 0 140.000000 140.000000"
 preserveAspectRatio="xMidYMid meet">
<metadata>
Created by potrace 1.11, written by Peter Selinger 2001-2013
</metadata>
<g transform="translate(0.000000,140.000000) scale(0.100000,-0.100000)"
fill="#000000" stroke="none">
<path d="M597 1290 c-54 -14 -122 -46 -197 -95 -140 -90 -198 -110 -303 -104
l-57 4 0 -30 c0 -32 22 -71 52 -93 35 -25 26 -30 -55 -32 -37 -1 -38 -2 -35
-33 3 -34 52 -97 75 -97 7 0 13 -4 13 -9 0 -5 32 -19 72 -32 52 -17 90 -22
142 -20 70 2 121 7 121 11 0 2 11 4 24 5 20 2 22 0 10 -9 -18 -14 -69 -109
-69 -128 0 -16 29 -33 72 -42 29 -7 37 1 44 40 19 103 164 262 195 213 4 -7 4
-18 -1 -24 -6 -7 -6 -15 0 -21 15 -15 24 -154 11 -154 -7 0 -10 -4 -7 -9 3 -5
-2 -19 -12 -32 -39 -51 -122 -195 -122 -212 0 -16 8 -19 58 -20 12 0 22 -3 22
-6 0 -4 28 -7 62 -7 l62 0 17 -55 c20 -70 42 -119 51 -119 5 0 8 -5 8 -10 0
-21 46 -60 79 -66 l34 -7 -7 44 c-3 24 -9 62 -13 84 -3 22 -6 52 -7 68 -1 15
-3 27 -6 27 -3 0 -5 13 -5 30 0 25 6 31 42 45 59 23 152 85 202 135 23 23 45
40 48 36 3 -3 1 -11 -4 -18 -21 -26 -35 -110 -27 -151 11 -55 107 -122 100
-69 -4 27 18 101 54 177 47 101 51 114 52 162 1 51 -10 66 -46 66 -14 0 -25 2
-24 6 2 22 -6 28 -39 28 -38 1 -174 10 -245 18 -37 3 -73 27 -61 39 4 3 2 6
-4 6 -13 0 -37 55 -29 68 8 13 172 -1 205 -18 9 -5 37 -15 63 -24 46 -14 47
-14 63 10 8 13 13 24 9 24 -4 0 -1 7 6 15 11 13 10 18 -6 29 -10 8 -22 12 -26
10 -5 -3 -8 0 -8 7 0 7 -3 10 -6 7 -3 -4 -20 -2 -37 4 -30 9 -53 14 -102 22
-11 2 -53 4 -92 5 l-73 1 11 24 c18 38 3 109 -30 144 -16 16 -32 39 -35 50 -7
22 -46 70 -46 57 0 -5 -6 -1 -13 9 -11 15 -31 19 -103 22 -49 2 -106 -1 -127
-6z"/>
</g>
</svg>
